<?xml version="1.0" encoding="UTF-8" standalone="no"?>
<!-- Created with Inkscape (http://www.inkscape.org/) -->

<svg
   xmlns:dc="http://purl.org/dc/elements/1.1/"
   xmlns:cc="http://creativecommons.org/ns#"
   xmlns:rdf="http://www.w3.org/1999/02/22-rdf-syntax-ns#"
   xmlns:svg="http://www.w3.org/2000/svg"
   xmlns="http://www.w3.org/2000/svg"
   xmlns:sodipodi="http://sodipodi.sourceforge.net/DTD/sodipodi-0.dtd"
   xmlns:inkscape="http://www.inkscape.org/namespaces/inkscape"
   width="256"
   height="256"
   viewBox="0 0 256 256"
   version="1.1"
   id="SVGRoot"
   inkscape:version="0.92.5 (2060ec1f9f, 2020-04-08)"
   sodipodi:docname="logo_space_Veins.svg">
  <defs
     id="defs3785" />
  <sodipodi:namedview
     id="base"
     pagecolor="#ffffff"
     bordercolor="#666666"
     borderopacity="1.0"
     inkscape:pageopacity="0.0"
     inkscape:pageshadow="2"
     inkscape:zoom="2.8284271"
     inkscape:cx="95.299031"
     inkscape:cy="135.88195"
     inkscape:document-units="px"
     inkscape:current-layer="layer1"
     showgrid="false"
     inkscape:window-width="1898"
     inkscape:window-height="1040"
     inkscape:window-x="12"
     inkscape:window-y="48"
     inkscape:window-maximized="0"
     inkscape:grid-bbox="true"
     inkscape:pagecheckerboard="true"
     inkscape:showpageshadow="false"
     scale-x="1"
     fit-margin-top="0"
     fit-margin-left="0"
     fit-margin-right="0"
     fit-margin-bottom="0" />
  <metadata
     id="metadata3788">
    <rdf:RDF>
      <cc:Work
         rdf:about="">
        <dc:format>image/svg+xml</dc:format>
        <dc:type
           rdf:resource="http://purl.org/dc/dcmitype/StillImage" />
        <dc:title></dc:title>
      </cc:Work>
    </rdf:RDF>
  </metadata>
  <g
     inkscape:label="Layer 1"
     inkscape:groupmode="layer"
     id="layer1"
     transform="translate(-0.02038243,-0.02752638)">
    <rect
       style="fill:#00152b;fill-opacity:1;stroke-width:1.04514337"
       id="rect3800"
       width="256"
       height="256"
       x="0.020382434"
       y="0.027526379"
       ry="28.620228" />
    <g
       transform="matrix(-0.36500097,0,0,0.36500097,-1064.7607,-313.43755)"
       id="layer1-3">
      <path
         d="m -3184.0338,1015.3023 c 6.5976,-0.057 13.5261,0.9246 20.7371,3.2402 17.6059,5.6541 36.8198,17.7035 54.0295,34.9124 16.6206,16.6206 28.447,35.0377 34.3449,52.1661 2.6699,7.7539 3.9664,15.391 3.9692,22.4381 25.6683,-25.6063 55.6496,-55.4871 55.6496,-55.4871 6.5575,-6.5575 7.9408,-18.6315 2.9972,-34.1021 -4.9434,-15.4706 -16.1037,-33.4385 -32.2394,-49.57426 -16.135,-16.13573 -34.1029,-27.29558 -49.5735,-32.23945 -15.4707,-4.94335 -27.5451,-3.56029 -34.1022,2.99708 a 5.4643247,5.4643247 0 0 1 -0.2431,0.24321 c 1e-4,-2.8e-4 -0.116,-0.0281 -0.2433,0.0794 a 5.4643247,5.4643247 0 0 1 -0.08,0.0805 c -0.056,0.0562 -0.1747,0.17677 -0.2427,0.24321 a 5.4643247,5.4643247 0 0 1 -0.08,0.08 c -0.017,0.017 -0.056,0.0676 -0.08,0.08 -0.2066,0.20157 -0.3445,0.34963 -0.6479,0.648 -0.9865,0.97084 -2.41,2.42033 -4.293,4.29308 -3.7689,3.74298 -9.2405,9.25023 -15.8765,15.87656 -8.9174,8.90687 -21.846,21.84227 -34.0211,34.02177 z m -30.2672,-91.44449 -24.8296,-24.82958 24.8296,-24.82958 24.8295,24.82958 z m 28.6496,28.64956 -24.8296,-24.82956 24.8296,-24.82958 24.8296,24.82958 z m 28.6495,28.64959 -24.8295,-24.82959 24.8295,-24.82958 24.8296,24.82958 z m -85.948,-28.64959 -24.8295,-24.82956 24.8295,-24.82958 24.8297,24.82958 z m 28.6497,28.64959 -24.8296,-24.82959 24.8296,-24.82958 24.8295,24.82958 z m 28.6495,28.64954 -24.8296,-24.82954 24.8296,-24.82959 24.8296,24.82959 z m 173.5345,116.2383 -24.8296,-24.8295 24.8296,-24.8296 24.8296,24.8296 z m 28.6495,28.6496 -24.8295,-24.8295 24.8295,-24.8297 24.8296,24.8297 z m 28.6497,28.6497 -24.8297,-24.8297 24.8297,-24.8295 24.8295,24.8295 z m -85.948,-28.6497 -24.8297,-24.8295 24.8297,-24.8297 24.8295,24.8297 z m 28.6495,28.6497 -24.8296,-24.8297 24.8296,-24.8295 24.8296,24.8295 z m 28.6496,28.6495 -24.8295,-24.8296 24.8295,-24.8295 24.8296,24.8295 z m -20.0272,-186.0915 c 10.9267,-13.8478 17.5776,-24.382 17.5776,-24.382 4.5413,-7.33599 6.5464,-15.5496 4.8601,-24.94877 -1.6861,-9.39991 -7.288,-20.24843 -19.1164,-32.07707 -11.9083,-11.90833 -22.3263,-17.69531 -31.429,-19.44108 -9.1028,-1.74569 -17.2447,0.21619 -25.7591,5.18429 a 6.522289,6.522289 0 0 1 -0.08,0.08 c -0.6746,0.38113 -0.1722,0.0726 -0.3242,0.16157 -0.1527,0.0861 -0.4105,0.21956 -0.7297,0.40423 -0.6364,0.37156 -1.5766,0.90849 -2.8348,1.70109 -2.5163,1.58542 -6.1879,4.04618 -10.8545,7.45229 -2.8249,2.06194 -6.1021,4.63018 -9.6397,7.53349 15.5094,6.5354 31.6406,17.54559 46.3337,32.23941 14.632,14.63201 25.4685,30.65905 31.9958,46.09085 z m -181.0419,102.9514 c 11.7862,11.7861 20.3043,15.0557 26.5687,14.9046 6.174,-0.1487 11.9232,-3.722 18.1444,-9.8826 0.1351,-0.1509 0.1271,-0.1284 0.2433,-0.2427 0.5015,-0.4914 0.8871,-0.8157 1.134,-0.9718 0.6062,-0.384 0.844,-0.4746 1.0538,-0.5651 0.4199,-0.1818 0.6487,-0.3226 0.8907,-0.4049 0.4858,-0.1643 0.9985,-0.3017 1.6201,-0.4864 1.2439,-0.3676 2.9313,-0.829 4.9412,-1.3771 4.0197,-1.096 9.3366,-2.4141 14.6618,-3.8071 9.3098,-2.4361 16.4352,-4.2972 18.6307,-4.86 3.8731,-4.6428 5.1753,-12.3939 2.1061,-23.0048 -3.2617,-11.2768 -11.1374,-24.5846 -22.9237,-36.3708 -11.7862,-11.7862 -25.0939,-19.6623 -36.3707,-22.9236 -10.6102,-3.0693 -18.3619,-1.767 -23.0049,2.1061 -0.2928,1.064 -0.6925,2.2474 -1.134,3.8881 -1.062,3.9491 -2.4772,9.2591 -3.8879,14.5806 -2.8249,10.6422 -5.6701,21.3849 -5.6701,21.3849 a 6.9250677,6.9250677 0 0 1 -1.7814,3.0784 c -6.3287,6.3286 -9.9741,12.1228 -10.1253,18.3879 -0.1508,6.265 3.1183,14.7824 14.9047,26.5686 z"
         style="fill:#ffffff;fill-opacity:1;stroke-width:0.74478304"
         id="path7145"
         inkscape:connector-curvature="0" />
      <flowRoot
         xml:space="preserve"
         id="flowRoot4698"
         style="font-style:normal;font-weight:normal;font-size:40px;line-height:1.25;font-family:sans-serif;letter-spacing:0px;word-spacing:0px;fill:#000000;fill-opacity:1;stroke:none"><flowRegion
           id="flowRegion4700"><rect
             id="rect4702"
             width="209.5"
             height="50.5"
             x="19.5"
             y="197" /></flowRegion><flowPara
           id="flowPara4704" /></flowRoot>      <text
         xml:space="preserve"
         style="font-style:normal;font-variant:normal;font-weight:normal;font-stretch:normal;font-size:109.58875275px;line-height:1.25;font-family:Ubuntu;-inkscape-font-specification:'Ubuntu, Normal';font-variant-ligatures:normal;font-variant-caps:normal;font-variant-numeric:normal;font-feature-settings:normal;text-align:start;letter-spacing:0px;word-spacing:0px;writing-mode:lr-tb;text-anchor:start;fill:#ffffff;fill-opacity:1;stroke:none;stroke-width:2.73971868"
         x="2966.5369"
         y="1510.9784"
         id="text4712"
         transform="scale(-1,1)"><tspan
           sodipodi:role="line"
           id="tspan4710"
           x="2966.5369"
           y="1510.9784"
           style="font-style:normal;font-variant:normal;font-weight:normal;font-stretch:normal;font-size:109.58875275px;font-family:Ubuntu;-inkscape-font-specification:'Ubuntu, Normal';font-variant-ligatures:normal;font-variant-caps:normal;font-variant-numeric:normal;font-feature-settings:normal;text-align:start;writing-mode:lr-tb;text-anchor:start;fill:#ffffff;fill-opacity:1;stroke-width:2.73971868">space_Veins</tspan></text>
    </g>
    <g
       id="g4904"
       transform="translate(-423.27633,-261.43264)">
      <g
         transform="matrix(-0.72065379,0,0,0.71581376,854.9281,117.99809)"
         id="imagebot_40"
         label="Layer 1">
        <path
           style="fill:#ffffff;fill-opacity:1"
           inkscape:connector-curvature="0"
           d="m 315.106,388.006 c -8.462,0.828 -10.651,23.769 -16.37,35.246 h -3.707 c -7.39,-0.828 -13.314,5.202 -13.314,12.618 v 10.825 c 0,4.702 2.356,8.759 5.983,11.163 -0.402,0.478 -0.418,0.94 -0.418,1.438 v 5.75 c 0.333,5.633 4.833,10.148 10.445,10.148 h 3.371 c 5.716,0 10.3,-4.515 10.3,-10.148 v -4.692 h 32.507 3.623 32.507 v 4.692 c 0.104,5.633 4.687,10.148 10.3,10.148 h 3.371 c 5.946,0 10.445,-4.515 10.445,-10.148 v -5.75 c -0.334,-0.498 -0.35,-0.96 -0.418,-1.438 3.627,-2.404 5.983,-6.461 5.983,-11.163 V 435.87 c 0,-6.588 -5.924,-12.618 -13.314,-12.618 h -3.708 c -5.718,-12.305 -7.907,-35.246 -17.19,-35.246 h -27.976 -3.623 -27.976 z"
           id="imagebot_45" />
        <path
           style="fill:#00152b;fill-opacity:1"
           inkscape:connector-curvature="0"
           d="m 307.68643,443.66605 c 0,4.0981 -3.3222,7.4203 -7.4203,7.4203 -4.0981,0 -7.4203,-3.3222 -7.4203,-7.4203 0,-4.0981 3.3222,-7.4203 7.4203,-7.4203 4.0981,0 7.4203,3.3222 7.4203,7.4203 z"
           id="imagebot_44" />
        <path
           style="fill:#00152b;fill-opacity:1"
           inkscape:connector-curvature="0"
           d="m 398.58643,443.66605 c 0,4.0981 -3.3222,7.4203 -7.4203,7.4203 -4.0981,0 -7.4203,-3.3222 -7.4203,-7.4203 0,-4.0981 3.3222,-7.4203 7.4203,-7.4203 4.0981,0 7.4203,3.3222 7.4203,7.4203 z"
           id="imagebot_43" />
        <path
           style="fill:#00152b;fill-opacity:1;stroke:#00152b;stroke-width:3.52460003;stroke-linecap:round;stroke-linejoin:round;stroke-miterlimit:3.9000001;stroke-opacity:1"
           inkscape:connector-curvature="0"
           d="m 324.376,399.136 c -5.95,-0.127 -7.72,12.661 -11.13,20.406 h 63.073 c -3.408,-7.617 -5.136,-20.406 -11.094,-20.406 h -19.183 -2.475 z"
           id="imagebot_42"
           stroke-miterlimit="3.9" />
        <path
           style="fill:#00152b;fill-opacity:1;stroke:#00152b;stroke-width:3.52460003;stroke-linecap:round;stroke-linejoin:round;stroke-miterlimit:3.9000001;stroke-opacity:1"
           inkscape:connector-curvature="0"
           d="m 331.796,441.806 h 25.971 v 9.275 h -25.971 z"
           id="imagebot_41"
           stroke-miterlimit="3.9" />
      </g>
      <g
         transform="matrix(0.06746041,-0.06700727,-0.06746041,-0.06700727,462.78773,484.7851)"
         id="imagebot_26"
         label="Layer 1">
        <path
           style="fill:#ffffff;fill-opacity:1;stroke:#00152b;stroke-opacity:1"
           inkscape:connector-curvature="0"
           d="m 1370.52,148.971 c -88.7,0 -167.25,33.723 -215.5,85.562 l 40,61.656 c 35.12,-46.921 100.55,-78.469 175.5,-78.469 69.4,0 130.64,27.063 167.22,68.312 l 41.47,-58.53 c -48.66,-47.85 -124.05,-78.531 -208.69,-78.531 z"
           id="imagebot_29" />
        <path
           style="fill:#ffffff;fill-opacity:1;stroke:#00152b;stroke-opacity:1"
           inkscape:connector-curvature="0"
           d="m 1363.4,303.252 c -50.46,0 -96.52,18.781 -131.56,49.688 l 33.78,52.094 c 26.41,-22.23 60.51,-35.66 97.78,-35.66 34.99,0 67.18,11.815 92.85,31.656 l 35.84,-50.625 c -34.67,-29.42 -79.59,-47.16 -128.68,-47.16 z"
           id="imagebot_28" />
        <path
           style="fill:#ffffff;fill-opacity:1;stroke:#00152b;stroke-opacity:1"
           inkscape:connector-curvature="0"
           d="m 1369.4,-4.16848 c -116.58,0 -221.31,45.12698 -293.44,116.81048 l 37.9,58.406 c 53.31,-61.704 147.02,-102.6905 253.79,-102.6905 105.95,0 199.07,40.3405 252.58,101.2505 l 41.32,-58.28 C 1589.45,40.3975 1485.28,-4.17249 1369.4,-4.17249 Z"
           id="imagebot_27" />
      </g>
    </g>
    <g
       transform="matrix(0.12273813,0,0,0.12273813,307.44307,-24.507026)"
       id="layer1-5"
       inkscape:label="Layer 1">
      <path
         inkscape:connector-curvature="0"
         id="path4140"
         d="m -902.3164,304.67969 -28.04007,302.41272 -115.18233,-95.63509 95.63512,115.1823 -302.41272,28.04007 302.41348,28.03931 -95.63588,115.1823 115.18233,-95.63433 28.04007,302.41273 28.03931,-302.41349 115.1823,95.63509 -95.63509,-115.1823 302.41348,-28.03931 -302.41272,-28.04007 95.63433,-115.1823 -115.1823,95.63586 z"
         style="opacity:1;fill:#fffff8;fill-opacity:1;stroke:none;stroke-width:1;stroke-miterlimit:4;stroke-dasharray:none;stroke-opacity:1" />
    </g>
  </g>
</svg>
