<?xml version="1.0" encoding="UTF-8" standalone="no"?>
<!-- Created with Inkscape (http://www.inkscape.org/) -->

<svg
   width="256"
   height="256"
   viewBox="0 0 256 256"
   version="1.1"
   id="SVGRoot"
   inkscape:version="1.1 (c4e8f9e, 2021-05-24)"
   sodipodi:docname="logo_space_Veins_inv.svg"
   xmlns:inkscape="http://www.inkscape.org/namespaces/inkscape"
   xmlns:sodipodi="http://sodipodi.sourceforge.net/DTD/sodipodi-0.dtd"
   xmlns="http://www.w3.org/2000/svg"
   xmlns:svg="http://www.w3.org/2000/svg"
   xmlns:rdf="http://www.w3.org/1999/02/22-rdf-syntax-ns#"
   xmlns:cc="http://creativecommons.org/ns#"
   xmlns:dc="http://purl.org/dc/elements/1.1/">
  <defs
     id="defs3785" />
  <sodipodi:namedview
     id="base"
     pagecolor="#ffffff"
     bordercolor="#666666"
     borderopacity="1.0"
     inkscape:pageopacity="0.0"
     inkscape:pageshadow="2"
     inkscape:zoom="2.8284271"
     inkscape:cx="95.28264"
     inkscape:cy="135.7645"
     inkscape:document-units="px"
     inkscape:current-layer="layer1"
     showgrid="false"
     inkscape:window-width="1898"
     inkscape:window-height="1040"
     inkscape:window-x="12"
     inkscape:window-y="91"
     inkscape:window-maximized="0"
     inkscape:grid-bbox="true"
     inkscape:pagecheckerboard="true"
     inkscape:showpageshadow="false"
     scale-x="1"
     fit-margin-top="0"
     fit-margin-left="0"
     fit-margin-right="0"
     fit-margin-bottom="0" />
  <metadata
     id="metadata3788">
    <rdf:RDF>
      <cc:Work
         rdf:about="">
        <dc:format>image/svg+xml</dc:format>
        <dc:type
           rdf:resource="http://purl.org/dc/dcmitype/StillImage" />
      </cc:Work>
    </rdf:RDF>
  </metadata>
  <g
     inkscape:label="Layer 1"
     inkscape:groupmode="layer"
     id="layer1"
     transform="translate(-0.02038243,-0.02752638)">
    <path
       id="path4140"
       style="fill:#000000;fill-opacity:1;stroke:none;stroke-width:0.122738;stroke-miterlimit:4;stroke-dasharray:none;stroke-opacity:1"
       d="m 196.69444,12.888789 -3.44158,37.117572 -14.13727,-11.738072 11.73808,14.13726 -37.11757,3.441586 37.11766,3.441492 -11.73817,14.13726 14.13727,-11.737978 3.44158,37.117573 3.44149,-37.117667 14.13726,11.738072 -11.73807,-14.13726 37.11767,-3.441492 -37.11757,-3.441586 11.73797,-14.13726 -14.13726,11.738167 z M 132.17289,131.87202 c -7.86453,7.81171 -17.97395,11.80555 -27.67566,11.83546 l -1.38335,-6.4532 c 7.7589,0.56246 16.84558,-2.9704 24.04832,-10.12476 7.14744,-7.09942 10.70796,-16.04225 10.20875,-23.70922 l 6.71906,1.13645 c -0.0789,9.58408 -4.09953,19.55074 -11.91685,27.31554 z m -21.14347,-20.19736 c -3.40405,3.38119 -7.77825,5.20908 -12.227066,5.48602 l -1.23547,-5.75418 c 3.281276,-0.28009 6.487666,-1.66513 9.001916,-4.1625 2.36044,-2.34458 3.73495,-5.29323 4.12817,-8.342802 l 5.83297,0.990702 c -0.35417,4.2945 -2.18774,8.49317 -5.49937,11.78256 z m 10.88818,9.86086 c -5.98374,5.94354 -13.55772,8.94728 -20.30977,8.70679 l -1.46092,-6.81169 c 5.53452,0.79075 12.07669,-1.47959 17.13285,-6.50179 4.68175,-4.6503 6.98735,-10.56724 6.67237,-15.78235 l 6.74605,1.14314 c -0.0547,6.46687 -3.07073,13.5744 -8.78058,19.2459 z m 39.12817,12.76935 c -6.68983,0 -8.26797,16.42238 -12.38867,25.23047 h -2.67188 c -5.32563,0 -9.5957,4.31547 -9.5957,9.03125 v 7.75 c 0,3.36575 1.69869,6.26942 4.3125,7.99024 -0.049,0.34216 -0.062,0.67281 -0.30273,1.02929 v 4.11524 c 0,4.03217 3.24233,7.26367 7.52734,7.26367 h 2.42969 c 4.04503,0 7.34883,-3.2315 7.42383,-7.26367 v -3.35742 h 23.42578 2.61133 23.42578 v 3.35742 c 0,4.03217 3.30261,7.26367 7.42187,7.26367 h 2.42969 c 4.04431,0 7.28736,-3.2315 7.52734,-7.26367 v -4.11524 c 0,-0.35648 -0.0111,-0.68713 -0.30078,-1.02929 2.61381,-1.72082 4.3125,-4.62449 4.3125,-7.99024 v -7.75 c 0,-5.30847 -4.27007,-9.62395 -9.5957,-9.03125 h -2.67188 c -4.12142,-8.2154 -5.6987,-24.63777 -11.79687,-25.23047 h -0.5918 -20.16015 -2.61133 z m 7.40625,6.70118 h 13.82422 1.7832 13.83008 l -0.0273,0.002 c 1.52335,-0.0323 2.81574,0.81456 3.72461,1.92773 0.90887,1.11316 1.57407,2.5235 2.17773,4.06641 1.20733,3.08582 2.14572,6.75501 3.30274,9.36523 a 1.2658616,1.2658616 0 0 1 -1.15626,1.77735 h -45.45312 a 1.2658616,1.2658616 0 0 1 -1.1543,-1.78516 c 1.15195,-2.55735 2.08198,-6.20315 3.28125,-9.28711 0.59964,-1.54199 1.26325,-2.95586 2.16602,-4.07812 0.90277,-1.12225 2.17798,-1.98828 3.70117,-1.98828 z m -18.69531,27.83007 c 2.95331,0 5.34765,2.37903 5.34765,5.3125 0,2.93348 -2.39434,5.31055 -5.34765,5.31055 -2.95332,0 -5.34766,-2.37707 -5.34766,-5.31055 0,-2.93347 2.39434,-5.3125 5.34766,-5.3125 z m 65.50781,0 c 2.95331,0 5.34766,2.37903 5.34766,5.3125 0,2.93348 -2.39435,5.31055 -5.34766,5.31055 -2.95332,0 -5.34766,-2.37707 -5.34766,-5.31055 0,-2.93347 2.39434,-5.3125 5.34766,-5.3125 z m -41.4375,2.71485 h 18.71484 a 1.2658616,1.2658616 0 0 1 1.26563,1.26562 v 6.63867 a 1.2658616,1.2658616 0 0 1 -1.26563,1.26563 h -18.71484 a 1.2658616,1.2658616 0 0 1 -1.26562,-1.26563 v -6.63867 a 1.2658616,1.2658616 0 0 1 1.26562,-1.26562 z m 50.38266,60.00004 h -3.40001 q 0.08,1.92001 0.8,3.28001 0.72001,1.32 1.92001,2.16001 1.2,0.8 2.76001,1.16 1.56,0.36 3.28,0.36 1.56001,0 3.12001,-0.32 1.60001,-0.28 2.84001,-1.04 1.28,-0.76 2.04,-2.00001 0.80001,-1.24 0.80001,-3.12001 0,-1.48 -0.60001,-2.48 -0.56,-1 -1.52,-1.64001 -0.92,-0.68 -2.16,-1.08 -1.20001,-0.4 -2.48001,-0.68 -1.2,-0.28 -2.40001,-0.52 -1.2,-0.28 -2.16,-0.64 -0.96,-0.4 -1.60001,-0.96001 -0.6,-0.6 -0.6,-1.48 0,-0.8 0.4,-1.28 0.4,-0.52 1.04001,-0.8 0.64,-0.32 1.4,-0.44001 0.8,-0.12 1.56,-0.12 0.84001,0 1.64001,0.20001 0.84,0.16 1.52,0.56 0.68,0.4 1.12,1.08 0.44001,0.64 0.52001,1.64 h 3.4 q -0.12,-1.88 -0.8,-3.12 -0.68,-1.28001 -1.84,-2.00001 -1.12001,-0.76 -2.60001,-1.04 -1.48,-0.32 -3.24001,-0.32 -1.36,0 -2.76,0.36 -1.36001,0.32 -2.48001,1.04 -1.08,0.68 -1.8,1.80001 -0.68001,1.12 -0.68001,2.68 0,2.00001 1.00001,3.12001 1,1.12 2.48,1.76 1.52001,0.60001 3.28001,0.96001 1.76,0.32 3.24001,0.76 1.52,0.4 2.52,1.08 1.00001,0.68 1.00001,2.00001 0,0.96 -0.48,1.6 -0.48001,0.6 -1.24001,0.92 -0.72,0.32 -1.6,0.44 -0.88,0.12 -1.68001,0.12 -1.04,0 -2.04,-0.2 -0.96,-0.2 -1.76,-0.64 -0.76001,-0.48 -1.24001,-1.24 -0.48,-0.8 -0.52,-1.92001 z m -24.34569,-14.16003 v 20.68005 H 203.264 V 226.391 q 0,-1.4 0.36,-2.56001 0.4,-1.2 1.16,-2.08 0.76,-0.88 1.88001,-1.36 1.16,-0.48001 2.72,-0.48001 1.96001,0 3.08001,1.12001 1.12,1.12 1.12,3.04 v 14.00004 h 3.40001 V 224.471 q 0,-1.68001 -0.36,-3.04001 -0.32,-1.40001 -1.16,-2.40001 -0.84,-1 -2.20001,-1.56 -1.36,-0.56 -3.40001,-0.56 -4.60001,0 -6.72001,3.76001 h -0.08 v -3.28001 z m -5.30626,-3.72001 v -4.16001 h -3.4 v 4.16001 z m -3.4,3.72001 v 20.68005 h 3.4 v -20.68005 z m -7.33065,8.36002 h -11.88003 q 0.08,-1.2 0.52001,-2.24001 0.44,-1.08 1.2,-1.88 0.76,-0.8 1.8,-1.24 1.08001,-0.48001 2.40001,-0.48001 1.28,0 2.32,0.48001 1.08001,0.44 1.84001,1.24 0.8,0.76 1.24,1.84 0.48,1.08001 0.56,2.28001 z m 3.28001,5.76001 h -3.36001 q -0.44,2.04001 -1.84,3.04001 -1.36,1 -3.52001,1 -1.68,0 -2.92001,-0.56 -1.24,-0.56 -2.04,-1.48 -0.8,-0.96 -1.16001,-2.16001 -0.36,-1.24 -0.32,-2.6 h 15.48004 q 0.08,-1.88001 -0.36,-3.96001 -0.4,-2.08001 -1.52,-3.84001 -1.08,-1.76001 -2.92001,-2.88001 -1.8,-1.16 -4.56001,-1.16 -2.12001,0 -3.92001,0.8 -1.76,0.8 -3.08001,2.24 -1.28,1.44001 -2,3.40001 -0.72,1.96001 -0.72,4.32001 0.08,2.36001 0.68,4.36001 0.64,2.00001 1.88,3.44001 1.24,1.44001 3.04001,2.24001 1.84,0.8 4.32001,0.8 3.52001,0 5.84001,-1.76 2.32001,-1.76001 3.00001,-5.24002 z m -28.09944,6.56002 10.16002,-28.56007 h -3.96001 l -8.24002,24.76006 h -0.08 l -8.16002,-24.76006 h -4.08001 l 10.04003,28.56007 z m -34.36009,2.96001 v 2 h 20.00005 v -2 z M 120.08317,225.751 h -11.88003 q 0.08,-1.2 0.52,-2.24001 0.44,-1.08 1.20001,-1.88 0.76,-0.8 1.8,-1.24 1.08,-0.48001 2.40001,-0.48001 1.28,0 2.32,0.48001 1.08001,0.44 1.84001,1.24 0.8,0.76 1.24,1.84 0.48,1.08001 0.56,2.28001 z m 3.28001,5.76001 h -3.36001 q -0.44,2.04001 -1.84,3.04001 -1.36001,1 -3.52001,1 -1.68001,0 -2.92001,-0.56 -1.24,-0.56 -2.04,-1.48 -0.80001,-0.96 -1.16001,-2.16001 -0.36,-1.24 -0.32,-2.6 h 15.48004 q 0.08,-1.88001 -0.36,-3.96001 -0.4,-2.08001 -1.52,-3.84001 -1.08001,-1.76001 -2.92001,-2.88001 -1.80001,-1.16 -4.56001,-1.16 -2.12001,0 -3.92001,0.8 -1.76001,0.8 -3.08001,2.24 -1.28,1.44001 -2,3.40001 -0.72001,1.96001 -0.72001,4.32001 0.08,2.36001 0.68001,4.36001 0.64,2.00001 1.88,3.44001 1.24,1.44001 3.04001,2.24001 1.84,0.8 4.32001,0.8 3.52001,0 5.84001,-1.76 2.32001,-1.76001 3.00001,-5.24002 z m -25.084437,-7.48002 h 3.520007 q -0.2,-1.84 -0.96,-3.16 -0.76,-1.36001 -1.960006,-2.24001 -1.160003,-0.88 -2.720007,-1.28 -1.520004,-0.44 -3.280008,-0.44 -2.440006,0 -4.280011,0.88 -1.840004,0.84 -3.080007,2.36001 -1.200003,1.48 -1.800005,3.52 -0.600001,2.00001 -0.600001,4.32001 0,2.32001 0.600001,4.28002 0.640002,1.92 1.840005,3.32 1.240003,1.40001 3.040007,2.16001 1.840005,0.76 4.200011,0.76 3.96001,0 6.240015,-2.08 2.320006,-2.08001 2.880006,-5.92002 h -3.480007 q -0.320001,2.40001 -1.760004,3.72001 -1.400004,1.32 -3.92001,1.32 -1.600004,0 -2.760007,-0.64 -1.160003,-0.64 -1.880005,-1.68 -0.720001,-1.08001 -1.080002,-2.44001 -0.320001,-1.36 -0.320001,-2.80001 0,-1.56 0.320001,-3 0.32,-1.48001 1.040002,-2.60001 0.760002,-1.12 2.000005,-1.8 1.240003,-0.68001 3.080008,-0.68001 2.160005,0 3.440008,1.08001 1.280004,1.08 1.680005,3.04 z m -17.204418,13.96004 q -0.880002,0.52 -2.440006,0.52 -1.320004,0 -2.120006,-0.72 -0.760001,-0.76 -0.760001,-2.44001 -1.400004,1.68001 -3.280009,2.44001 -1.840004,0.72 -4.00001,0.72 -1.400003,0 -2.680006,-0.32 -1.240003,-0.32 -2.160006,-1 -0.920002,-0.68 -1.480003,-1.76001 -0.520001,-1.12 -0.520001,-2.68 0,-1.76001 0.600001,-2.88001 0.600001,-1.12 1.560004,-1.80001 1.000002,-0.72 2.240005,-1.08 1.280004,-0.36 2.600007,-0.6 1.400003,-0.28 2.640006,-0.4 1.280004,-0.16 2.240006,-0.4 0.960002,-0.28 1.520004,-0.76 0.560001,-0.52 0.560001,-1.48001 0,-1.12 -0.440001,-1.8 -0.400001,-0.68 -1.080003,-1.04 -0.640001,-0.36 -1.480003,-0.48001 -0.800002,-0.12 -1.600004,-0.12 -2.160006,0 -3.600009,0.84001 -1.440004,0.8 -1.560004,3.08 h -3.400009 q 0.08,-1.92 0.800002,-3.24 0.720002,-1.32001 1.920005,-2.12001 1.200003,-0.84 2.720007,-1.2 1.560004,-0.36 3.320008,-0.36 1.400004,0 2.760007,0.2 1.400004,0.2 2.520006,0.84 1.120003,0.6 1.800005,1.72 0.680001,1.12001 0.680001,2.92001 v 10.64003 q 0,1.2 0.120001,1.76 0.16,0.56 0.960002,0.56 0.440001,0 1.040003,-0.2 z M 75.554311,227.391 q -0.640002,0.48 -1.680004,0.72 -1.040003,0.20001 -2.200006,0.36001 -1.120002,0.12 -2.280005,0.32 -1.160003,0.16 -2.080005,0.56 -0.920003,0.4 -1.520004,1.16 -0.560002,0.72 -0.560002,2.00001 0,0.84 0.320001,1.44 0.360001,0.56 0.880002,0.92 0.560002,0.36 1.280004,0.52 0.720001,0.16 1.520003,0.16 1.680005,0 2.880007,-0.44 1.200003,-0.48 1.960005,-1.16 0.760002,-0.72 1.120003,-1.52 0.360001,-0.84001 0.360001,-1.56001 z M 39.124222,217.39098 v 28.56007 h 3.400009 v -10.64003 h 0.08 q 0.560001,0.92001 1.360003,1.56001 0.840002,0.6 1.760005,0.96 0.920002,0.36 1.840004,0.52 0.960003,0.16 1.720005,0.16 2.360005,0 4.12001,-0.84 1.800004,-0.84 2.960007,-2.28001 1.200003,-1.48 1.760004,-3.44001 0.600002,-1.96 0.600002,-4.16001 0,-2.2 -0.600002,-4.16001 -0.600001,-1.96 -1.800004,-3.44 -1.160003,-1.52001 -2.960007,-2.40001 -1.760005,-0.88 -4.160011,-0.88 -2.160005,0 -3.960009,0.8 -1.800005,0.76 -2.640007,2.48001 h -0.08 v -2.80001 z m 16.00004,10.16002 q 0,1.52001 -0.320001,2.96001 -0.320001,1.44 -1.040002,2.56001 -0.720002,1.12 -1.920005,1.8 -1.160003,0.68 -2.920007,0.68 -1.760005,0 -3.000008,-0.64 -1.240003,-0.68 -2.040005,-1.76 -0.760002,-1.08001 -1.120003,-2.48001 -0.360001,-1.44 -0.360001,-2.96001 0,-1.44 0.320001,-2.84 0.360001,-1.40001 1.120003,-2.48001 0.760002,-1.12 1.960005,-1.8 1.200003,-0.68001 2.920007,-0.68001 1.640004,0 2.840007,0.64001 1.240003,0.64 2.000005,1.72 0.800002,1.08 1.160003,2.48001 0.400001,1.36 0.400001,2.8 z m -34.040084,4.00001 h -3.400009 q 0.08,1.92001 0.800002,3.28001 0.720002,1.32 1.920005,2.16001 1.200003,0.8 2.760007,1.16 1.560004,0.36 3.280008,0.36 1.560004,0 3.120008,-0.32 1.600004,-0.28 2.840007,-1.04 1.280003,-0.76 2.040005,-2.00001 0.800002,-1.24 0.800002,-3.12001 0,-1.48 -0.600002,-2.48 -0.560001,-1 -1.520004,-1.64001 -0.920002,-0.68 -2.160005,-1.08 -1.200003,-0.4 -2.480006,-0.68 -1.200003,-0.28 -2.400006,-0.52 -1.200003,-0.28 -2.160005,-0.64 -0.960003,-0.4 -1.600004,-0.96001 -0.600002,-0.6 -0.600002,-1.48 0,-0.8 0.400001,-1.28 0.400001,-0.52 1.040003,-0.8 0.640001,-0.32 1.400003,-0.44001 0.800002,-0.12 1.560004,-0.12 0.840002,0 1.640004,0.20001 0.840002,0.16 1.520004,0.56 0.680002,0.4 1.120003,1.08 0.440001,0.64 0.520001,1.64 h 3.400008 q -0.12,-1.88 -0.800002,-3.12 -0.680001,-1.28001 -1.840004,-2.00001 -1.120003,-0.76 -2.600007,-1.04 -1.480003,-0.32 -3.240008,-0.32 -1.360003,0 -2.760006,0.36 -1.360004,0.32 -2.480007,1.04 -1.080002,0.68 -1.800004,1.80001 -0.680002,1.12 -0.680002,2.68 0,2.00001 1.000003,3.12001 1.000002,1.12 2.480006,1.76 1.520004,0.60001 3.280008,0.96001 1.760004,0.32 3.240008,0.76 1.520004,0.4 2.520006,1.08 1.000003,0.68 1.000003,2.00001 0,0.96 -0.480001,1.6 -0.480002,0.6 -1.240003,0.92 -0.720002,0.32 -1.600004,0.44 -0.880003,0.12 -1.680005,0.12 -1.040002,0 -2.040005,-0.2 -0.960002,-0.2 -1.760004,-0.64 -0.760002,-0.48 -1.240003,-1.24 -0.480001,-0.8 -0.520001,-1.92001 z M 97.414726,57.148774 c -2.408131,-0.02081 -4.93704,0.33748 -7.569062,1.182676 -6.426171,2.063752 -13.439263,6.461795 -19.72082,12.74306 -6.066535,6.066535 -10.383183,12.788795 -12.535922,19.040677 -0.974516,2.830181 -1.44774,5.61773 -1.448762,8.189929 C 46.771206,88.958791 35.828002,78.05227 35.828002,78.05227 33.434508,75.658777 32.929603,71.251755 34.734021,65.604971 36.538367,59.958187 40.611888,53.399886 46.501434,47.510318 52.390724,41.620761 58.949025,37.547405 64.595809,35.742887 70.24263,33.93856 74.649798,34.443378 77.043145,36.836824 a 1.9944838,1.9944838 0 0 0 0.08873,0.08877 c -3.6e-5,-1.02e-4 0.04234,-0.01026 0.0888,0.02898 a 1.9944838,1.9944838 0 0 0 0.0292,0.02938 c 0.02044,0.02051 0.06377,0.06452 0.08859,0.08877 a 1.9944838,1.9944838 0 0 0 0.0292,0.0292 c 0.0062,0.0062 0.02044,0.02467 0.0292,0.0292 0.07541,0.07357 0.125743,0.127615 0.236484,0.236521 0.360073,0.354357 0.879652,0.883422 1.566949,1.566978 1.375652,1.366191 3.372792,3.376343 5.794938,5.79496 3.25486,3.251016 7.973811,7.97245 12.417735,12.417979 z m 11.047554,-33.377327 9.06283,-9.062821 -9.06283,-9.0628208 -9.062789,9.0628208 z m -10.457129,10.457117 9.062829,-9.062814 -9.062829,-9.06282 -9.062828,9.06282 z m -10.457095,10.457128 9.062791,-9.062824 -9.062791,-9.062821 -9.062828,9.062821 z m 31.371104,-10.457128 9.06279,-9.062814 -9.06279,-9.06282 -9.06287,9.06282 z m -10.45717,10.457128 9.06283,-9.062824 -9.06283,-9.062821 -9.062791,9.062821 z m -10.457094,10.45711 9.062824,-9.062806 -9.062824,-9.062825 -9.062829,9.062825 z m -63.340261,42.427092 9.062828,-9.062791 -9.062828,-9.062828 -9.062828,9.062828 z m -10.457096,10.457136 9.062792,-9.062796 -9.062792,-9.062864 -9.062828,9.062864 z m -10.457168,10.45716 9.062865,-9.06286 -9.062865,-9.06279 -9.0627914,9.06279 z m 31.371104,-10.45716 9.062864,-9.062796 -9.062864,-9.062864 -9.062792,9.062864 z m -10.457096,10.45716 9.062828,-9.06286 -9.062828,-9.06279 -9.062828,9.06279 z m -10.457132,10.4571 9.062792,-9.06283 -9.062792,-9.06279 -9.062828,9.06279 z m 7.309948,-67.923578 c -3.988256,-5.054461 -6.415841,-8.899454 -6.415841,-8.899454 -1.657579,-2.677643 -2.389443,-5.675619 -1.773941,-9.106325 0.615428,-3.430977 2.660127,-7.390697 6.977504,-11.708162 4.346541,-4.346552 8.149121,-6.458805 11.471616,-7.096013 3.32253,-0.637179 6.294332,0.07891 9.402096,1.892271 a 2.3806418,2.3806418 0 0 0 0.0292,0.0292 c 0.24623,0.139113 0.06285,0.0265 0.118334,0.05897 0.05573,0.03143 0.149832,0.08014 0.266341,0.147545 0.232286,0.135619 0.57546,0.331599 1.034704,0.620899 0.918452,0.57868 2.25859,1.47686 3.961904,2.720093 1.031091,0.75261 2.227272,1.69002 3.518499,2.749731 -5.660946,2.385428 -11.548849,6.404158 -16.911845,11.767416 -5.340694,5.340698 -9.296027,11.190583 -11.678498,16.823205 z m 66.080469,37.57736 c -4.301974,4.301938 -7.411089,5.495348 -9.697601,5.440198 -2.253516,-0.0543 -4.35198,-1.35854 -6.622724,-3.60716 -0.04931,-0.0551 -0.04639,-0.0469 -0.0888,-0.0886 -0.183048,-0.17936 -0.323792,-0.29773 -0.413911,-0.354706 -0.221263,-0.140161 -0.308061,-0.17323 -0.384638,-0.206262 -0.153264,-0.06636 -0.236776,-0.11775 -0.325106,-0.147789 -0.177318,-0.05997 -0.364454,-0.110121 -0.591338,-0.177537 -0.454025,-0.134174 -1.069928,-0.302586 -1.803543,-0.502643 -1.467194,-0.400041 -3.407868,-0.881148 -5.351571,-1.389595 -3.398086,-0.889179 -5.998864,-1.568482 -6.800224,-1.773904 -1.413685,-1.694627 -1.888989,-4.523786 -0.768728,-8.396775 1.190523,-4.116043 4.065162,-8.973403 8.367172,-13.275377 4.301975,-4.301975 9.159298,-7.176759 13.275341,-8.367136 3.872734,-1.120298 6.702112,-0.644957 8.396811,0.768728 0.106872,0.388361 0.252763,0.820303 0.413911,1.419161 0.387631,1.441425 0.904181,3.37958 1.419087,5.321933 1.031092,3.884413 2.069592,7.805509 2.069592,7.805509 a 2.5276564,2.5276564 0 0 0 0.650213,1.123619 c 2.309973,2.309945 3.640553,4.424834 3.695743,6.711601 0.055,2.286731 -1.13819,5.395591 -5.440229,9.697565 z" />
  </g>
</svg>
