<?xml version="1.0" standalone="no"?>
<!DOCTYPE svg PUBLIC "-//W3C//DTD SVG 20010904//EN"
 "http://www.w3.org/TR/2001/REC-SVG-20010904/DTD/svg10.dtd">
<svg version="1.0" xmlns="http://www.w3.org/2000/svg"
 width="700.000000pt" height="700.000000pt" viewBox="0 0 700.000000 700.000000"
 preserveAspectRatio="xMidYMid meet">
<metadata>
Created by potrace 1.14, written by Peter Selinger 2001-2017
</metadata>
<g transform="translate(0.000000,700.000000) scale(0.100000,-0.100000)"
fill="#000000" stroke="none">
<path d="M590 6979 c-284 -74 -497 -288 -570 -573 -20 -79 -20 -101 -20 -2906
0 -2805 0 -2827 20 -2906 73 -286 288 -501 574 -574 79 -20 101 -20 2906 -20
2805 0 2827 0 2906 20 287 74 500 287 574 574 20 79 20 101 20 2906 0 2805 0
2827 -20 2906 -74 287 -287 500 -574 574 -79 20 -100 20 -2910 19 -2778 0
-2832 0 -2906 -20z m2495 -499 l-120 -120 -120 120 -120 120 120 120 120 120
120 -120 120 -120 -120 -120z m2339 -374 c24 -257 45 -468 47 -471 2 -2 76 56
164 129 88 74 161 132 163 131 2 -2 -55 -74 -127 -161 -72 -87 -131 -161 -131
-164 0 -3 163 -21 363 -39 458 -43 609 -58 577 -60 -132 -9 -931 -88 -936 -93
-3 -4 51 -76 122 -160 70 -84 134 -162 143 -172 9 -11 -63 46 -159 126 l-175
146 -8 -36 c-4 -21 -23 -212 -42 -427 -19 -214 -38 -412 -42 -440 -5 -38 -17
59 -49 400 -24 248 -43 460 -43 473 -1 12 -5 22 -10 22 -5 0 -79 -58 -165
-130 -85 -71 -158 -130 -161 -130 -3 0 56 73 130 163 110 133 131 163 117 169
-9 4 -224 25 -477 48 -253 23 -461 43 -462 44 -1 1 213 21 475 45 262 24 479
45 481 47 2 2 -41 56 -95 121 -176 212 -189 228 -174 217 8 -7 87 -71 174
-143 87 -72 160 -130 162 -129 1 2 22 215 45 475 24 259 45 470 47 469 1 -2
22 -213 46 -470z m-2621 326 l117 -117 -123 -123 -122 -122 -120 120 -120 120
120 120 c66 66 122 120 125 120 3 0 58 -53 123 -118z m572 -2 l120 -120 -120
-120 -120 -120 -122 122 -123 123 117 117 c65 65 120 118 123 118 3 0 59 -54
125 -120z m-2060 -109 c56 -20 198 -107 273 -168 l43 -35 -96 -53 c-136 -76
-233 -151 -365 -284 -117 -118 -229 -269 -279 -378 -14 -29 -28 -53 -32 -53
-16 0 -180 237 -200 290 -17 45 -20 71 -17 142 4 76 9 96 41 160 82 161 277
339 421 384 61 19 149 17 211 -5z m1198 -413 l-123 -123 -120 120 -120 120
122 122 123 123 120 -120 120 -120 -122 -122z m580 0 c-65 -65 -122 -118 -128
-118 -5 0 -63 53 -127 117 l-118 118 122 122 123 123 122 -122 123 -123 -117
-117z m-1036 113 c21 -11 163 -145 316 -299 l279 -279 -64 -6 c-126 -12 -310
-91 -463 -199 -107 -75 -289 -253 -366 -358 -119 -161 -191 -313 -217 -463
l-16 -88 -288 288 c-204 204 -292 298 -300 323 -18 54 -12 175 12 255 69 220
273 488 496 652 127 93 299 175 414 197 51 9 158 -3 197 -23z m748 -161 l120
-120 -123 -123 -122 -122 -122 122 -123 123 120 120 c66 66 122 120 125 120 3
0 59 -54 125 -120z m-242 -666 c15 -8 27 -16 27 -17 0 -1 24 -93 54 -204 49
-185 57 -206 94 -250 55 -66 72 -104 72 -160 0 -73 -41 -144 -145 -250 -98
-99 -188 -153 -255 -153 -46 1 -108 30 -158 74 -47 43 -65 49 -290 107 -166
42 -173 45 -187 76 -44 92 5 266 120 428 55 76 182 199 263 254 155 105 313
141 405 95z m-1490 -492 l117 -117 -123 -123 -122 -122 -120 120 -120 120 120
120 c66 66 122 120 125 120 3 0 58 -53 123 -118z m397 -407 c0 -5 -53 -63
-117 -127 l-118 -118 -122 122 -123 123 122 122 123 123 117 -117 c65 -65 118
-122 118 -128z m-687 117 l117 -117 -120 -120 -120 -120 -120 120 -120 120
117 117 c65 65 120 118 123 118 3 0 58 -53 123 -118z m2345 -138 c29 -4 52
-12 52 -18 0 -32 -34 -136 -61 -187 -34 -63 -109 -143 -179 -189 -47 -31 -139
-65 -200 -73 l-36 -5 -15 73 -15 74 36 6 c138 26 265 140 306 275 16 53 21 60
39 56 11 -3 44 -8 73 -12z m-2633 -384 l-120 -120 -120 120 -120 120 120 120
120 120 120 -120 120 -120 -120 -120z m575 -5 l-120 -120 -122 122 -123 123
120 120 120 120 122 -122 123 -123 -120 -120z m2438 324 c38 -7 62 -17 62 -24
0 -7 -6 -47 -14 -87 -65 -338 -371 -616 -717 -652 l-56 -6 -16 75 c-25 110
-27 105 47 105 85 0 203 38 283 90 170 112 292 305 293 463 0 58 0 59 28 53
15 -3 55 -11 90 -17z m351 -59 l74 -12 -6 -82 c-25 -334 -255 -673 -578 -850
-130 -71 -321 -126 -440 -126 -42 0 -49 3 -54 23 -33 144 -34 137 20 137 67 0
189 27 275 61 107 43 213 112 304 199 99 94 155 167 211 273 57 107 85 202 92
309 4 56 10 85 17 83 6 -2 44 -9 85 -15z m-3074 -310 l120 -120 -120 -120
-120 -120 -122 122 -123 123 117 117 c65 65 120 118 123 118 3 0 59 -54 125
-120z m4868 -549 c42 -37 79 -113 122 -249 18 -59 52 -166 75 -238 55 -176 53
-174 144 -172 91 2 154 -26 203 -90 44 -58 56 -127 51 -291 -5 -152 -22 -206
-82 -258 -31 -28 -31 -29 -31 -123 0 -86 -3 -100 -28 -142 -43 -73 -93 -98
-200 -98 -96 0 -129 9 -171 48 -44 42 -66 98 -66 175 l0 67 -680 0 -680 0 0
-68 c0 -82 -26 -141 -83 -186 -36 -29 -45 -31 -137 -34 -83 -3 -103 -1 -137
17 -85 43 -118 113 -111 240 4 74 3 76 -28 103 -60 53 -77 107 -82 257 -5 162
6 223 53 284 49 64 119 97 206 97 41 0 71 5 77 13 11 14 60 155 122 357 50
163 92 251 137 290 l34 30 629 0 629 0 34 -29z m-341 -2018 c22 -20 24 -66 2
-87 -8 -9 -28 -16 -44 -16 -36 0 -60 23 -60 57 0 55 62 83 102 46z m-1327 -50
c3 -10 38 -106 75 -213 87 -245 142 -382 155 -382 11 0 104 238 177 455 l53
157 52 0 c29 0 53 -2 53 -5 0 -14 -167 -450 -222 -581 l-63 -149 -51 -3 -51
-3 -48 108 c-58 133 -143 348 -201 511 l-44 122 54 0 c42 0 55 -4 61 -17z
m-3107 -169 c21 -6 23 -11 17 -43 -4 -20 -8 -38 -10 -40 -2 -2 -18 2 -36 8
-45 16 -135 14 -169 -4 -35 -18 -46 -47 -30 -85 12 -29 26 -38 158 -95 34 -16
76 -43 92 -62 26 -29 30 -41 30 -95 0 -57 -2 -63 -38 -98 -29 -29 -50 -40 -97
-50 -63 -13 -169 -8 -223 11 -28 10 -31 14 -25 42 8 46 13 48 67 32 140 -42
263 11 215 93 -16 27 -30 36 -151 92 -99 46 -128 80 -128 149 0 71 38 120 115
149 30 12 167 9 213 -4z m535 -14 c58 -27 111 -87 131 -148 20 -58 20 -173 1
-238 -40 -135 -179 -203 -317 -157 -32 11 -60 18 -63 15 -3 -3 -5 -54 -5 -114
l0 -108 -45 0 -45 0 0 374 0 375 53 10 c28 5 61 12 72 15 47 12 171 -2 218
-24z m580 14 c54 -18 92 -58 107 -112 5 -20 10 -128 10 -239 l0 -201 -67 -8
c-260 -29 -363 16 -363 161 0 75 23 115 82 147 37 20 58 23 152 23 l108 0 -5
47 c-11 93 -58 124 -171 115 -39 -3 -78 -7 -86 -9 -11 -2 -16 7 -18 34 -3 36
-2 37 40 46 67 15 160 13 211 -4z m627 5 c40 -8 50 -14 46 -27 -17 -63 -18
-64 -39 -57 -12 3 -47 8 -77 11 -75 7 -135 -23 -169 -86 -21 -37 -25 -58 -25
-125 0 -67 4 -88 25 -124 41 -74 118 -99 240 -78 l47 8 4 -37 c4 -31 1 -37
-21 -46 -14 -6 -66 -11 -116 -12 -82 -1 -95 2 -144 29 -95 52 -132 126 -132
262 0 213 147 328 361 282z m523 -22 c63 -37 97 -105 104 -208 l6 -79 -197 0
-198 0 7 -32 c19 -91 68 -141 152 -152 45 -6 152 6 173 19 6 3 10 2 10 -3 0
-5 3 -23 6 -40 6 -28 3 -31 -32 -43 -54 -19 -209 -17 -255 3 -102 44 -153 134
-152 268 1 153 54 243 171 286 56 21 151 12 205 -19z m1770 22 c50 -14 106
-64 130 -117 10 -24 21 -77 24 -118 l6 -74 -198 0 -197 0 7 -37 c21 -120 123
-172 273 -140 55 12 62 12 62 -2 0 -9 3 -26 6 -37 5 -18 -1 -24 -33 -35 -54
-19 -209 -17 -254 3 -53 23 -104 72 -130 126 -33 68 -34 215 -1 287 57 123
176 180 305 144z m939 -21 c28 -15 52 -39 68 -68 24 -44 25 -52 28 -257 l3
-213 -45 0 -46 0 0 168 c0 92 -5 187 -11 212 -19 84 -75 115 -186 104 l-63 -7
0 -238 0 -239 -50 0 -50 0 0 270 0 270 25 6 c121 30 264 27 327 -8z m575 16
c19 -5 21 -11 16 -38 -8 -44 -13 -47 -58 -35 -56 16 -149 7 -175 -16 -24 -21
-26 -62 -5 -92 8 -11 54 -37 102 -57 48 -21 102 -48 119 -61 39 -29 58 -83 51
-137 -12 -92 -79 -132 -222 -133 -51 0 -107 6 -128 14 -38 13 -39 14 -32 50 4
20 8 37 9 38 1 1 24 -5 51 -13 65 -20 177 -14 205 11 27 25 26 76 -2 103 -13
11 -66 40 -118 65 -105 49 -128 69 -140 121 -17 78 25 152 106 182 38 14 168
13 221 -2z m-1107 -274 l0 -280 -50 0 -50 0 0 280 0 280 50 0 50 0 0 -280z
m-1470 -450 l0 -40 -270 0 -270 0 0 40 0 40 270 0 270 0 0 -40z"/>
<path d="M4551 3133 c-56 -28 -98 -107 -171 -330 -28 -85 -32 -104 -21 -117
12 -14 81 -16 647 -16 562 0 634 2 648 16 9 8 16 18 16 21 0 13 -105 302 -121
333 -23 45 -64 89 -96 101 -14 5 -207 9 -446 9 -372 0 -426 -2 -456 -17z"/>
<path d="M4043 2379 c-94 -28 -127 -167 -57 -240 94 -98 254 -34 254 101 0
102 -96 170 -197 139z"/>
<path d="M5845 2383 c-126 -34 -142 -215 -25 -276 93 -48 211 22 212 125 1 51
-23 100 -62 129 -27 20 -92 31 -125 22z"/>
<path d="M4720 2291 c-15 -28 -13 -193 3 -214 11 -16 38 -17 292 -15 l280 3 0
120 0 120 -282 3 c-271 2 -283 2 -293 -17z"/>
<path d="M1167 973 c-4 -3 -7 -86 -7 -184 l0 -179 43 -22 c90 -47 190 -21 235
60 35 62 35 181 1 242 -39 72 -76 90 -179 90 -48 0 -90 -3 -93 -7z"/>
<path d="M1843 749 c-38 -11 -73 -52 -73 -86 0 -39 27 -80 61 -92 34 -12 147
-15 173 -5 13 5 16 23 16 94 l0 87 -37 7 c-51 8 -101 6 -140 -5z"/>
<path d="M2945 971 c-37 -22 -59 -54 -73 -104 l-10 -37 144 0 144 0 0 26 c0
40 -30 94 -64 115 -39 24 -102 24 -141 0z"/>
<path d="M4760 967 c-36 -24 -64 -65 -74 -109 l-6 -28 145 0 145 0 0 25 c0 40
-37 103 -70 120 -43 22 -101 19 -140 -8z"/>
</g>
</svg>
